<svg width="1024" height="1024" viewBox="0 0 1024 1024" fill="none" xmlns="http://www.w3.org/2000/svg">
<path d="M498.396 146.505C591.532 142.353 689.152 178.014 757.31 242.048C764.13 233.822 795.742 199.944 804.95 198.842C817.394 197.354 827.144 212.156 820.662 222.824C814.894 232.314 789.846 254.792 780.74 265.022C790.404 274.776 799.166 286.164 807.278 297.226C908.428 435.164 899.108 626.468 785.3 754.01C716.972 830.584 627.824 869.938 526.75 875.7C430.654 875.778 335.958 849.086 265.678 780.002C259.536 788.066 227.68 821.66 217.854 822.266C204.524 823.088 196.58 807.976 203.246 797.126C209.724 786.58 231.726 767.412 242.044 756.744C233.192 744.872 222.748 734.408 214.064 722.238C65.5512 514.11 176.697 214.288 427.678 156.383C451.376 150.915 474.352 149.004 498.396 146.505ZM311.928 681.332C308.982 684.466 302.748 687.498 306.434 691.87C309.158 693.13 309.412 692.206 311.342 690.098C323.584 676.734 357.102 640.312 370.976 630.238C363.366 617.464 355.834 612.072 356.45 595.728C357.702 562.462 394.376 548.744 420.884 578.296C433.576 565.824 462.666 539.99 471.688 527.324C401.378 512.776 357.016 440.502 400.07 376.266C417.624 350.072 446.284 333.908 476.746 327.786C471.454 260.352 556.622 269.484 545.936 327.786C593.238 328.82 645.818 374.346 618.638 374.504C618.746 376.712 618.864 378.848 618.638 381.056C625.048 374.564 631.81 368.418 638.292 361.994L687.904 312.584C685.22 309.764 682.49 306.872 678.424 306.614C670.668 303.846 664.824 297.768 658.154 293.196C520.732 198.968 325.42 259.73 266.944 415.46C231.722 509.258 248.932 605.288 311.928 681.332ZM719.026 327.786L666.31 380.412C657.982 388.766 646.65 398.28 640.128 407.898L642.864 411.692C650.07 399.348 657.15 405.502 658.818 417.788C662.958 448.294 619.766 472.434 599.488 449.168L598.618 448.768L598.142 449.362C591.922 457.02 579.698 466.286 574.906 473.332C607.99 489.672 642.636 517.006 654.82 552.528C680.816 628.322 617.558 689.262 545.936 701.686C552.712 758.14 473.056 764.322 476.746 701.686C448.184 696.538 409.972 680.6 390.15 659.314C386.582 659.488 338.182 711.55 329.624 718.808L333.46 722.158C336.652 719.29 339.52 715.98 342.548 712.926L353.814 721.564C458.498 800.46 610.658 787.956 700.988 693.348C784.092 606.308 798.602 467.396 732.33 366.668C728.02 360.116 706.102 336.39 725.366 334.796C724.656 332.188 721.022 329.516 719.026 327.786ZM564.544 483.014C563.192 484.126 561.934 485.218 560.74 486.5C538.384 509.054 516.784 532.348 494.24 554.712C492.248 556.688 489.65 558.74 487.99 560.942C491.13 566.572 489.796 620.882 489.54 630.238C477.572 648.474 447.096 619.422 438.536 609.392C427.39 621.814 408.862 636.58 399.718 649.046C414.216 665.352 444.442 679.752 465.446 685.488C470.79 686.948 481.596 687.79 485.9 690.858C494.868 697.254 482.036 716.078 499.004 728.044C507.948 734.35 518.99 733.57 527.134 725.966C538.058 715.77 528.758 699.614 536.614 691.958C540.236 688.428 564.502 683.028 571.176 681.332C600.086 665.06 623.14 658.582 639.176 623.396C668.66 558.702 619.692 508.186 564.544 483.014ZM545.936 406.094C545.958 422.084 546.266 438.128 545.936 454.11C551.638 449.506 575.02 426.43 578.926 420.948C569.384 412.024 558.896 407.442 545.936 406.094ZM476.746 570.968C472.47 574.626 448.282 600.248 448.108 601.092C456.952 608.82 465.73 616.558 476.746 621.038C476.754 604.436 475.96 587.53 476.746 570.968Z" fill="#013C58"/>
<path d="M640.128 407.898L642.864 411.692C654.394 428.242 632.04 454.966 608.694 439.716C618.244 429.224 629.162 416.736 640.128 407.898Z" fill="#F5A201"/>
<path d="M379.96 621.038C375.45 613.452 369.262 605.65 369.776 596.356C370.578 581.86 381.684 574.062 395.534 575.124C402.916 578.08 406.23 582.17 410.186 588.75C405.842 594.092 400.134 598.454 395.534 603.67C389.888 609.13 384.114 614.296 379.96 621.038Z" fill="#F5A201"/>
<path d="M482.652 516.568C468.354 513.22 454.448 509.486 441.522 502.228C377.746 466.42 384.344 380.892 450.906 350.45C458.628 346.918 484.642 339.694 487.238 336.82C491.304 332.32 487.3 315.304 493.232 305.338C499.754 294.38 513.548 290.816 524.334 298.14C541.084 309.514 527.74 329.408 535.742 336.366C537.79 338.148 565.094 345.002 571.014 347.152C592.724 355.036 600.118 363.642 617.778 374.004L618.638 374.504C618.746 376.712 618.864 378.848 618.638 381.056C608.794 391.062 597.986 400.918 589.052 411.692C580.466 403.378 545.44 384.396 535.224 395.35C532.28 398.506 531.498 458.722 533.052 466.372L533.402 466.7C526.5 476.262 491.342 509.144 482.652 516.568Z" fill="#F5A201"/>
<path d="M480.51 393.078C483.63 392.67 487.268 392.954 488.752 396.276C490.756 400.76 491.224 449.208 488.104 457.666C482.658 461.084 474.438 454.494 470.03 451.582C442.418 431.214 448.618 401.62 480.51 393.078Z" fill="#013C58"/>
<path d="M476.746 407.898C476.768 407.902 476.776 417.052 476.746 441.962L471.688 436.454C461.56 424.076 463.296 415.82 476.746 407.898Z" fill="#FEFEFE"/>
<path d="M564.544 483.014C619.692 508.186 668.66 558.702 639.176 623.396C623.14 658.582 600.086 665.06 571.176 681.332C564.502 683.028 540.236 688.428 536.614 691.958C528.758 699.614 538.058 715.77 527.134 725.966C518.99 733.57 507.948 734.35 499.004 728.044C482.036 716.078 494.868 697.254 485.9 690.858C481.596 687.79 470.79 686.948 465.446 685.488C444.442 679.752 414.216 665.352 399.718 649.046C408.862 636.58 427.39 621.814 438.536 609.392C447.096 619.422 477.572 648.474 489.54 630.238C489.796 620.882 491.13 566.572 487.99 560.942C489.65 558.74 492.248 556.688 494.24 554.712C516.784 532.348 538.384 509.054 560.74 486.5C561.934 485.218 563.192 484.126 564.544 483.014ZM540.732 535.056C534.428 537.142 533.146 539.29 532.9 545.666C532.312 560.824 532.246 628.122 533.782 632.47C534.852 635.5 537.952 637.214 540.732 638.39C553.646 637.062 563.896 631.15 574.906 624.716C594.292 605.9 603.022 582.978 581.68 561.216C575.62 555.036 549.578 535.396 540.732 535.056Z" fill="#F5A201"/>
<path d="M540.732 535.056C549.578 535.396 575.62 555.036 581.68 561.216C603.022 582.978 594.292 605.9 574.906 624.716C563.896 631.15 553.646 637.062 540.732 638.39C537.952 637.214 534.852 635.5 533.782 632.47C532.246 628.122 532.312 560.824 532.9 545.666C533.146 539.29 534.428 537.142 540.732 535.056ZM545.936 551.7L545.91 600.272C545.898 608.364 545.34 616.656 545.936 624.716C553.784 621.868 561.986 617.712 568.226 612.088C596.818 588.178 570.452 561.976 545.936 551.7Z" fill="#013C58"/>
<path d="M265.678 736.014C262.252 732.942 259.254 729.704 256.344 726.138C136.813 579.704 155.772 369.994 302.916 250.494C410.338 163.252 560.612 154.261 679.35 222.206C697.868 232.804 722.58 248.254 736.2 265.022C724.186 273.878 697.028 301.008 687.904 312.584C685.22 309.764 682.49 306.872 678.424 306.614C685.454 306.268 685.914 302.608 684.802 296.388C681.072 291.088 673.802 287.006 668.456 283.332C586.45 227.002 480.528 217.83 390.682 262.268C236.632 338.462 188.274 532.092 287.052 671.74C292.048 678.804 297.274 685.944 303.604 691.87L306.434 694.568C297.832 701.42 270.372 727.36 265.678 736.014Z" fill="#3084A1"/>
<path d="M759.74 286.964C865.938 399.82 874.676 581.858 783.554 707.118C666.624 867.86 434.926 891.266 288.216 758.942C293.334 753.622 326.154 720.632 329.624 718.808L333.46 722.158C336.652 719.29 339.52 715.98 342.548 712.926L353.814 721.564C458.498 800.46 610.658 787.956 700.988 693.348C784.092 606.308 798.602 467.396 732.33 366.668C728.02 360.116 706.102 336.39 725.366 334.796C724.656 332.188 721.022 329.516 719.026 327.786C730.674 314.906 747.034 298.362 759.74 286.964Z" fill="#3084A1"/>
<path d="M342.548 712.926L353.814 721.564C458.498 800.46 610.658 787.956 700.988 693.348C784.092 606.308 798.602 467.396 732.33 366.668C728.02 360.116 706.102 336.39 725.366 334.796C732.84 341.828 739 351.854 744.526 360.49C812.868 467.28 800.17 607.386 713.068 700.14C621.722 797.416 471.896 814.842 360.438 742.454C351.466 736.626 340.56 730.238 333.46 722.158C336.652 719.29 339.52 715.98 342.548 712.926Z" fill="#013C58"/>
</svg>
