<svg width="1649" height="1649" viewBox="0 0 1649 1649" fill="none" xmlns="http://www.w3.org/2000/svg">
<path d="M545.542 219.273L1072.21 219.296C1109.02 219.276 1134.79 213.784 1163.97 242.06C1180.53 258.097 1186.88 277.311 1187.19 299.971C1188.26 378.965 1187.2 458.107 1187.2 537.12L1187.23 1318.75C1187.25 1331.44 1188.2 1344.94 1186.79 1357.53C1182.41 1396.46 1145.62 1427.82 1106.87 1428.03L589.484 1428.05C571.194 1428.04 548.764 1429.71 531.099 1427.16C451.992 1415.73 463.104 1343.07 463.098 1286.26L463.091 329.388C463.098 267.768 472.85 222.572 545.542 219.273Z" fill="#013C58"/>
<path d="M548.023 264.235C563.255 264.22 641.441 262.315 649.566 265.923C654.637 268.175 653.542 298 669.844 312.636C687.344 328.345 709.088 325.377 730.857 325.387L887.721 325.358C906.568 325.345 925.673 326.006 944.482 324.762C1000.68 321.043 987.74 273.278 995.943 266.47C1002.43 261.079 1047.3 264.273 1057.07 264.299C1096.37 264.406 1138.32 253.743 1140.82 308.215C1141.92 332.185 1141.18 356.448 1141.17 380.447L1141.18 1236.48C1141.2 1248.69 1142.37 1261.5 1141.15 1273.6C1129.49 1311.51 1065.41 1299.09 1033.08 1299.08L578.691 1299.1C504.613 1299.17 508.982 1293.3 509.001 1214.68L509.017 361.838C509.014 324.095 496.465 267.906 548.023 264.235Z" fill="#3084A1"/>
<path d="M872.646 754.995L1031.23 755.011C1054.59 754.995 1079.46 752.946 1102.67 754.995C1097.49 786.845 1068.84 779.364 1044.39 779.377L927.052 779.354C901.964 779.325 882.163 783.629 872.646 754.995Z" fill="#E3E4E3"/>
<path d="M545.542 1126.72C606.907 1125.53 668.474 1126.93 729.868 1126.68C742.514 1126.63 767.405 1129.11 778.207 1126.72C775.888 1147.13 766.296 1155.64 745.784 1156.52C711.053 1157.99 675.756 1156.65 640.967 1156.68L598.836 1156.69C574.886 1156.67 546.621 1159.5 545.542 1126.72Z" fill="#E3E4E3"/>
<path d="M1102.67 1067.74C1103.17 1079.5 1102.64 1091.33 1102.75 1103.1C1102.99 1129.09 1106.53 1155.48 1072.7 1156.51C1035.78 1157.63 998.572 1156.72 961.631 1156.71L922.41 1156.69C892.753 1156.66 872.617 1157.69 872.646 1121.52L873.819 1125.97C876.474 1128.49 1077.73 1126.72 1102.67 1126.72C1102.71 1107.34 1101.2 1087.01 1102.67 1067.74Z" fill="#E3E4E3"/>
<path d="M872.646 1121.52L872.598 915.293C872.572 882.714 872.273 865.375 910.003 865.269H1032.82C1055.97 865.278 1099.68 855.239 1102.33 885.417C1106.83 936.621 1103.74 1015.54 1102.67 1067.74C1101.2 1087.01 1102.71 1107.34 1102.67 1126.72C1077.73 1126.72 876.474 1128.49 873.819 1125.97L872.646 1121.52Z" fill="#FEFEFE"/>
<path d="M899.036 912.78L1009.3 912.754C1023.77 912.754 1071.04 909.236 1082.55 916.011C1084.39 924.272 1083.4 934.008 1083.39 942.51L1083.37 1052.15C1083.39 1063.56 1088.43 1100.96 1075.24 1103.34L941.486 1103.32C891.03 1103.32 893.301 1113.27 893.256 1056.59L893.233 998.726C893.23 983.275 887.589 918.991 899.036 912.78Z" fill="#F5A201"/>
<path d="M948.85 951.128C967.318 950.581 1007.63 946.876 1020.69 960.79C1033.84 974.818 1026.99 990.047 1014.24 1001.02C1031.97 1009.73 1039.39 1022.4 1030.39 1041.36C1015.97 1059.81 961.054 1059.28 947.845 1053.2C944.285 1044.41 945.104 957.501 948.85 951.128Z" fill="#BC4F2B"/>
<path d="M972.759 972.311C984.309 971.838 1012.12 971.483 994.664 989.451C988.504 993.111 979.712 991.771 972.759 991.529C972.366 985.056 972.418 978.784 972.759 972.311Z" fill="#F5A201"/>
<path d="M972.759 1012.41C984.293 1012.13 1015.81 1009.17 1003.52 1030.32C994.851 1035.34 982.473 1033.62 972.759 1033.42V1012.41Z" fill="#F5A201"/>
<path d="M545.542 1126.72L545.484 918.06C545.346 867.398 551.547 865.194 601.668 865.249L647.127 865.33C680.347 865.394 716.256 863.864 749.157 865.446C780.907 866.97 778.433 893.394 778.294 918.089L778.207 1126.72C767.405 1129.11 742.514 1126.63 729.868 1126.68C668.474 1126.93 606.907 1125.53 545.542 1126.72Z" fill="#FEFEFE"/>
<path d="M574.68 912.78C583.501 910.731 593.176 912.719 602.184 912.854C644.179 913.492 686.542 913.769 728.502 912.77C763.597 911.936 756.299 905.257 756.293 949.746L756.232 1005.92C756.212 1021.88 763.026 1098.36 749.083 1103.34L634.888 1103.33C615.738 1103.36 595.921 1104.52 576.867 1103.29C558.806 1102.13 563.996 1083.44 563.971 1068.14L563.906 963.664C563.896 948.628 557.775 915.705 574.68 912.78Z" fill="#F5A201"/>
<path d="M651.741 946.486C660.591 946.379 669.46 946.144 678.307 946.486C684.11 952.288 719.317 1042.83 714.752 1051.92C683.858 1067 687.869 1029.3 674.261 1027.8H645.117C642.411 1037.28 639.057 1046.63 633.992 1055.11C627.075 1054.6 615.937 1054.95 610.216 1050.88C608.669 1043.01 625.999 1002.14 629.35 992.489C633.531 980.433 638.293 950.239 651.741 946.486Z" fill="#BC4F2B"/>
<path d="M663.258 972.311C667.025 976.016 672.363 999.126 674.261 1006.07H663.258C659.447 1006.24 655.558 1006.07 651.741 1006.07C654.714 995.141 657.366 981.983 663.258 972.311Z" fill="#F5A201"/>
<path d="M872.646 754.995L872.547 540.61C872.398 513.16 868.249 488.404 903.176 488.224L1015.89 488.356C1035.18 488.317 1062.2 486.613 1080.61 489.084C1107.51 492.696 1102.85 516.337 1102.74 536.544L1102.67 754.995C1079.46 752.946 1054.59 754.995 1031.23 755.011L872.646 754.995Z" fill="#FEFEFE"/>
<path d="M901.958 538.206L1018.11 538.19C1026.58 538.187 1080.25 535.629 1082.97 541.431C1086.52 548.996 1083.34 567.611 1083.34 576.307L1083.24 687.647C1083.24 700.905 1090.46 721.91 1075.24 728.486C1066.93 727.664 1058.06 728.438 1049.68 728.454L963.886 728.528C880.176 728.547 893.266 737.942 893.311 666.957L893.208 590.511C893.192 577.737 887.457 540.648 901.958 538.206Z" fill="#F5A201"/>
<path d="M978.684 579.316C1044.31 573.056 1056.45 663.571 994.664 676.429C930.454 686.426 913.495 591.603 978.684 579.316Z" fill="#FEFEFE"/>
<path d="M974.08 604.719H994.664V646.815H981.429C972.24 647.198 974.302 638.86 974.08 631.827C987.714 628.199 993.562 620.261 974.08 620.992C973.8 615.586 973.999 610.135 974.08 604.719Z" fill="#F5A201"/>
<path d="M574.68 488.35L691.974 488.327C714.964 488.327 768.104 479.387 776.996 504.719C779.567 512.046 780.801 753.384 776.31 762.16C770.501 773.51 762.295 779.409 749.083 779.348L627.33 779.354C609.974 779.357 587.692 780.823 571.017 779.354C536.773 776.342 545.51 738.718 545.513 714.494L545.533 554.138C545.536 525.345 536.615 490.147 574.68 488.35Z" fill="#FEFEFE"/>
<path d="M578.362 538.206L685.64 538.187C764.135 538.187 756.293 522.039 756.296 592.915L756.154 689.619C756.103 702.029 763.262 729.404 744.45 728.486L630.922 728.467C571.574 728.528 563.938 745.494 563.913 687.786V582.734C563.861 564.676 556.78 540.104 578.362 538.206Z" fill="#F5A201"/>
<path d="M659.402 592.651C662.646 592.473 665.929 592.615 669.177 592.651C676.026 602.812 679.776 615.982 684.123 627.394L700.547 670.378H684.432C682.27 664.183 680.321 657.904 678.307 651.657H666.5H648.155C645.265 657.714 643.016 664.122 640.593 670.378C635.638 670.636 630.812 670.614 625.854 670.378C629.43 657.231 647.449 594.245 659.402 592.651Z" fill="#FEFEFE"/>
<path d="M663.258 611.037C666.757 615.425 672.073 634.063 674.261 640.413H663.258H651.741C654.83 630.029 658.207 620.648 663.258 611.037Z" fill="#F5A201"/>
</svg>
