<svg width="1024" height="1024" viewBox="0 0 1024 1024" fill="none" xmlns="http://www.w3.org/2000/svg">
<path d="M155.578 159.082C169.016 158.19 182.64 159.06 196.103 159.069L737.732 159.054C789.468 159.046 786.468 165.54 786.48 218.974L786.46 288.49C807.908 289.174 851.408 285.504 870.224 289.164C899.19 294.796 892.628 329.738 892.61 352.002L892.632 764.552C892.642 798.772 889.9 823.782 857.962 844.548C834.4 860.162 805.996 856.51 779.194 856.504L235.074 856.512C223.128 856.514 210.854 856.912 198.976 855.504C162.172 851.14 134.046 818.03 132.197 781.502C131.543 768.598 132.052 755.426 132.066 742.496L132.024 211.726C132.014 191.761 126.477 160.069 155.578 159.082ZM255.3 204.31H178.956L178.928 758.87C178.921 793.45 179.657 811.474 218.062 811.456L668.5 811.418H743.956C740.062 798.664 740.422 791.966 740.444 778.588L740.492 204.31H255.3Z" fill="#013C58"/>
<path d="M786.46 332.428H845.408L845.414 738.526C845.428 757.376 850.586 788.788 837.154 802.762C825.178 813.73 806.662 814.704 794.822 802.894C784.946 793.044 786.46 779.6 786.458 766.824L786.46 332.428Z" fill="#ADD7E6"/>
<path d="M245.998 273.514C253.18 274 260.486 273.642 267.68 273.514C267.688 294.336 267.452 315.176 267.68 335.996C278.572 335.776 289.71 335.5 300.584 335.996V353.398H245.998V273.514Z" fill="#F5A201"/>
<path d="M309.546 273.514H361.444V291.314C351.544 291.58 341.55 291.306 331.642 291.314C331.542 295.888 331.63 300.478 331.642 305.054C340.96 305.256 350.31 305.072 359.63 305.054V321.132C351.104 321.358 331.86 316.998 331.642 325.25V335.996C341.976 335.96 352.314 336.25 362.646 335.996C362.608 341.796 362.568 347.596 362.646 353.398H309.546V273.514Z" fill="#F5A201"/>
<path d="M394.234 273.514H418.216C427.314 299.218 436.46 327.25 444.712 353.398C437.182 353.396 429.652 353.606 422.124 353.398C419.408 347.748 417.71 341.978 415.902 335.996C414.076 333.82 397.794 335.114 394.234 335.126C392.538 341.264 390.662 347.33 388.74 353.398H366.592C369.752 338.672 388.7 282.442 394.234 273.514ZM405.23 293.818C401.966 302.226 400.672 311.14 397.48 319.516H405.23H412.014C411.08 315.784 406.652 295.118 405.23 293.818Z" fill="#F5A201"/>
<path d="M571.954 272.504C583.99 271.528 592.968 274.928 603.936 279.358C600.422 284.848 597.724 290.434 595.064 296.366C556.106 271.628 544.414 321.456 563.762 334.49C569.844 338.586 576.82 337.21 583.53 335.996V323.398C578.696 323.334 573.854 323.392 569.018 323.398V307.502H591.75H603.936V348.764C587.806 357.616 558.852 357.416 545.17 344.48C519.482 320.19 534.622 273.668 571.954 272.504Z" fill="#F5A201"/>
<path d="M501.476 273.514C507.912 273.818 514.27 273.782 520.706 273.514C521.502 300.036 520.716 326.846 520.706 353.398H498.414C489.67 340.93 478.31 318.682 470.88 305.054C469.302 317.73 470.892 339.652 470.88 353.398C464.17 352.972 457.524 353.17 450.812 353.398C450.348 344.64 450.786 335.656 450.792 326.876L450.812 273.514C457.992 273.434 465.18 274.108 472.348 273.514C479.468 285.944 493.526 313.362 501.476 323.398V273.514Z" fill="#F5A201"/>
<path d="M654.722 272.504C700.308 266.87 707.818 357.68 650.758 353.398C602.472 356.65 598.59 270.122 654.722 272.504ZM650.758 291.314C625.708 295.138 633.308 338.882 654.722 335.996C677.624 333.114 672.086 283.41 650.758 291.314Z" fill="#F5A201"/>
<path d="M249.516 735.244L634.472 735.25C643.23 735.248 679.262 732.976 685.456 736.692C693.416 741.466 691.782 753.77 679.478 756.242H297.014C281.26 756.244 265.17 756.934 249.456 756.186C234.5 755.474 234.844 736.2 249.516 735.244Z" fill="#013C58"/>
<path d="M245.998 670.5L650.602 670.548C658.318 670.536 676.504 669.244 683.184 670.992C694 673.824 690.66 687.056 683.086 691.494C677.832 691.85 672.364 691.552 667.09 691.538L245.998 691.494C235.608 685.84 236.468 675.91 245.998 670.5Z" fill="#013C58"/>
<path d="M491.926 431.344L652.978 431.322C704.582 431.262 699.468 438.248 699.424 483.858L699.448 579.196C699.462 595.084 703.346 617.026 683.086 621.804C676.094 622.442 668.638 621.836 661.59 621.828L534.826 621.796C523.278 621.802 511.64 622.214 500.106 621.984C472.396 621.432 475.298 596.168 475.282 576.722L475.264 538.174C475.256 509.674 474.44 480.884 475.358 452.42C475.712 441.456 481.448 435.236 491.926 431.344Z" fill="#F5A201"/>
<path d="M583.53 547.368L635.62 547.336C643.946 547.336 653.228 546.498 661.41 547.714C668.038 548.7 671.61 557.764 666.582 562.644C660.848 568.21 647.212 565.68 640.052 565.678L595.064 565.662L542.398 565.696C534.202 565.702 524.926 566.522 516.822 565.386C509.66 564.382 507.686 554.358 512.682 549.666C517.836 544.828 532.388 547.394 538.85 547.39L583.53 547.368Z" fill="#013C58"/>
<path d="M514.792 507.372C522.96 506.694 531.65 507.356 539.88 507.358L636.774 507.362C644.866 507.362 671.244 503.322 668.766 518.14C668.17 521.704 666.004 523.766 663.216 525.828C658.038 526.414 652.084 525.836 646.83 525.834L552.476 525.836C545.48 525.836 516.516 528.328 512.014 522.832C508.3 518.298 510.234 510.534 514.792 507.372Z" fill="#013C58"/>
<path d="M517.53 467.828C566.07 467.83 614.682 467.244 663.216 467.828C671.664 473.76 671.072 483.134 661.308 486.456C644.642 486.74 519.558 487.96 513.828 484.992C506.448 481.166 509.946 469.324 517.53 467.828Z" fill="#013C58"/>
<path d="M240.002 431.344C250.372 430.65 261.228 431.324 271.644 431.328L393.888 431.336C446.452 431.188 444.854 433.378 444.73 480.892L444.728 577.326C444.78 596.21 447.83 617.228 422.124 621.804L259.466 621.86C217.758 622.03 217.09 618.106 217.104 573.532L217.078 477.622C217.024 459.134 213.848 434.436 240.002 431.344Z" fill="#013C58"/>
<path d="M369.936 502.654C414.37 497.932 396.358 540.972 401.99 567.648C397.53 567.938 393.198 567.852 388.74 567.648C388.406 564.912 387.786 562.182 387.272 559.474C376.754 571.298 356.712 573.848 347.432 559.474C335.736 532.45 370.194 528.854 388.74 528.176C386.164 507.884 366.78 511.236 362.646 522.648C329.784 522.044 360.434 504.176 369.936 502.654Z" fill="#F5A201"/>
<path d="M385.018 537.652C393.054 536.624 385.188 560.958 364.744 557.2C348.36 544.11 376.874 539.144 385.018 537.652Z" fill="#013C58"/>
<path d="M292.124 475.588H307.714C317.414 502.918 334.892 540.588 341.274 567.648C335.998 567.612 330.724 567.564 325.45 567.648C322.906 559.28 319.236 550.888 315.598 542.938H307.714C299.738 542.988 291.754 543.102 283.78 542.938C280.784 551.136 277.668 559.314 275.06 567.648C269.764 567.798 264.494 568.008 259.202 567.648C261.09 559.994 288.76 477.702 292.124 475.588Z" fill="#F5A201"/>
<path d="M299.124 491.316C303.412 503.528 306.678 515.57 311.366 528.176H299.124C295.04 528.344 291.028 528.368 286.944 528.176C290.81 515.964 294.162 503.116 299.124 491.316Z" fill="#013C58"/>
</svg>
