<svg width="1024" height="1024" viewBox="0 0 1024 1024" fill="none" xmlns="http://www.w3.org/2000/svg">
<path d="M866.972 589.3L866.994 590.12C867.38 605.658 866.984 621.318 866.98 636.866L867.008 778.958C867.028 803.36 867.884 821.628 849.502 840.648C836.03 854.586 820.438 859.458 801.438 859.812C757.222 860.634 712.86 859.848 668.626 859.848L239.332 859.882C214.112 859.898 196.018 859.746 176.415 840.648C163.169 827.744 157.659 810.984 157.501 792.82L157.495 231.848C157.498 208.284 156.975 187.936 174.88 169.865C187.786 156.839 203.014 152.107 220.984 152.027L792.614 152.003C825.34 152.001 857.26 159.509 865.084 198.31C867.746 211.518 866.998 225.912 866.996 239.352L866.972 469.584L861.182 463.96C855.272 458.142 847.996 452.134 843.412 445.256C842.882 434.062 843.4 422.654 843.406 411.434L843.412 343.946H180.807L180.797 783.94C180.802 789.956 180.525 796.352 181.341 802.314C185.672 833.97 213.93 836.464 238.494 836.434L794.198 836.43C836.462 836.236 843.494 817.566 843.448 779.538L843.412 612.874C848.836 607.636 855.664 602.14 859.828 595.864L866.972 589.3Z" fill="#013C58"/>
<path d="M213.288 174.953C215.286 174.78 217.416 174.905 219.424 174.904L783.756 174.94C848.616 174.96 843.412 193.163 843.428 246.244L843.412 321.026C833.392 320.662 823.124 320.258 813.126 321.026H180.807L180.802 245.146C180.789 216.24 174.641 181.288 213.288 174.953Z" fill="#3084A1"/>
<path d="M262.104 223.624C296.022 222.156 302.228 264.628 268.658 274.188C240.4 278.442 223.942 231.022 262.104 223.624Z" fill="#F5A201"/>
<path d="M346.52 223.624C371.446 218.434 389.512 263.822 350.834 274.188C318.012 277.904 311.564 227.374 346.52 223.624Z" fill="#F5A201"/>
<path d="M647.25 236.65L754.056 236.644C761.038 236.602 771.464 235.044 777.158 240.102C783.242 245.504 784.278 256.106 778.228 261.944C772.896 267.09 762.4 265.776 755.524 265.822L672.368 265.836C661.13 265.84 642.274 266.854 631.686 265.348C621.66 263.922 604.184 236.954 647.25 236.65Z" fill="#FEFEFE"/>
<path d="M180.807 343.946H843.412L843.406 411.434C843.4 422.654 842.882 434.062 843.412 445.256C847.996 452.134 855.272 458.142 861.182 463.96C859.512 474.146 860.404 485.226 859.828 495.582C878.014 509.836 874.516 536.464 861.176 553.128L859.828 554.8L859.728 582.552C859.692 586.562 858.932 592.064 859.828 595.864C855.664 602.14 848.836 607.636 843.412 612.874L843.448 779.538C843.494 817.566 836.462 836.236 794.198 836.43L238.494 836.434C213.93 836.464 185.672 833.97 181.341 802.314C180.525 796.352 180.802 789.956 180.797 783.94L180.807 343.946ZM560.138 794.93C567.172 794.618 630.092 781.054 636.076 777.604C644.004 773.032 652.7 762.636 659.398 755.926L845.32 569.318C850.114 564.44 854.63 559.258 859.828 554.8L861.176 553.128C874.516 536.464 878.014 509.836 859.828 495.582C813.002 446.148 786.262 480.938 748.18 518.686L591.352 675.676C582.884 683.986 572.884 692.388 565.524 701.67C561.208 707.11 550.834 779.32 551.716 785.01C552.514 790.162 555.724 792.876 560.138 794.93ZM449.992 419.464C439.744 421.886 437.004 435.824 446.254 441.602C453.396 446.062 499.218 443.456 510.106 443.458L710.714 443.478C723.182 443.482 737.194 444.38 749.48 443.472C760.896 438.848 761.612 424.122 750.77 420.276C745.334 418.348 706.064 419.446 697.838 419.448L494.99 419.452C480.032 419.45 464.932 419.002 449.992 419.464Z" fill="#66ADC5"/>
<path d="M449.992 560.592C460.19 560.23 470.52 560.582 480.728 560.584L595.658 560.594C604.32 560.592 619.67 558.318 627.532 562.324C637.538 567.422 634.134 581.632 624.126 584.054L464.192 584.058C460.094 584.082 455.93 584.724 451.868 584.606C437.038 584.176 436.554 564.584 449.992 560.592Z" fill="#FEFEFE"/>
<path d="M449.992 491.396C462.234 490.734 474.806 491.384 487.084 491.388L642.01 491.398C651.826 491.39 684.69 488.696 692.102 493.738C700.828 499.674 696.888 513.53 686.648 514.452L478.322 514.42C469.37 514.428 442.926 518.51 440.548 505.822C439.368 499.522 443.328 492.164 449.992 491.396Z" fill="#FEFEFE"/>
<path d="M245.62 715.542C258.572 715.02 271.722 715.52 284.696 715.528L443.496 715.516C459.21 715.516 475.018 715.136 490.716 715.75C505.208 716.318 509.626 733.156 495.026 738.502C483.034 739.112 470.736 738.508 458.71 738.506L289.734 738.488C280.022 738.47 249.128 740.878 241.366 736.964C231.096 731.784 235.502 717.582 245.62 715.542Z" fill="#FEFEFE"/>
<path d="M298.872 645.424L468.608 645.4C476.558 645.392 493.482 642.898 499.934 648.676C506.404 654.464 504.402 666.772 495.394 668.74C489.324 670.066 481.742 669.362 475.492 669.37L441.25 669.36L269.384 669.375C259.066 669.373 236.424 673.59 235.518 658.226C234.58 642.326 253.616 645.382 263.698 645.39L298.872 645.424Z" fill="#FEFEFE"/>
<path d="M311.028 411.098C326.32 409.934 330.726 433.284 335.752 445.402C344.67 466.91 353.062 488.738 362.498 510.018C370.676 510.928 379.164 509.294 387.39 510.492C399.802 512.302 401.39 527.016 391.506 533.04C385.056 533.642 378.238 533.126 371.744 533.04C376.074 547.4 384.068 560.684 387.904 575.064C385.698 581.306 379.744 589.2 372.202 585.876C364.138 582.32 350.21 542.526 346.52 533.04H338.998H279.086C275.006 542.758 261.204 582.572 251.986 585.786C243.828 588.628 238.372 582.39 236.438 575.064C237.426 569.372 240.262 564.29 242.524 559.036L296.868 433.166C300.392 424.776 302.218 415.274 311.028 411.098Z" fill="#013C58"/>
<path d="M313.758 453.328C317.484 456.864 334.67 502.28 337.068 510.018H313.758H289.606C297.412 491.016 305.234 472.022 313.758 453.328Z" fill="#66ADC5"/>
<path d="M560.138 794.93C555.724 792.876 552.514 790.162 551.716 785.01C550.834 779.32 561.208 707.11 565.524 701.67C572.884 692.388 582.884 683.986 591.352 675.676L748.18 518.686C786.262 480.938 813.002 446.148 859.828 495.582C878.014 509.836 874.516 536.464 861.176 553.128L859.828 554.8C854.63 559.258 850.114 564.44 845.32 569.318L659.398 755.926C652.7 762.636 644.004 773.032 636.076 777.604C630.092 781.054 567.172 794.618 560.138 794.93ZM582.702 732.2C581.9 743.468 580.254 754.806 578.514 765.96C585.866 764.284 593.214 762.564 600.608 761.076L610.396 759.044C602.656 751.83 590.276 737.608 582.702 732.2Z" fill="#013C58"/>
<path d="M811.036 495.582C832.106 494.058 856.32 516.218 847.628 532.118C842.632 541.254 828.704 549.63 822.024 560.592C811.452 545.116 794.66 532.838 781.948 518.972C790.332 509.836 798.476 498.728 811.036 495.582Z" fill="#F5A201"/>
<path d="M765.536 535.8C769.152 537.212 800.138 570 805.074 575.064C799.97 582.61 789.898 591.272 783.204 597.878L633.02 748.204C619.31 735.3 606.422 721.514 592.456 708.894C597.246 702.818 603.278 697.48 608.794 692.058L765.536 535.8Z" fill="#F5A201"/>
</svg>
