<svg width="1024" height="1024" viewBox="0 0 1024 1024" fill="none" xmlns="http://www.w3.org/2000/svg">
<path d="M135.508 305.508C139.526 305.114 143.91 305.448 147.959 305.454L173.429 305.508V718.67L346.212 718.65C375.498 718.65 404.836 718.264 434.114 718.676C451.57 718.92 451.998 723.31 463.766 734.992C475.664 746.8 487.542 758.616 499.24 770.626C521.018 770.256 520.996 773.456 536.996 757.122L552.394 741.402C574.21 719.018 571.97 718.564 601.244 718.66L819.196 718.676C829.96 718.676 840.26 717.182 851.008 718.67V305.508C888.906 308.964 908.092 292.038 908.01 344.734L907.952 375.25L907.95 713.204C907.952 730.918 914.774 769.404 889.266 773.152C883.002 774.074 875.502 772.74 869.034 772.734L598.33 772.758C593.362 776.568 588.992 781.688 584.564 786.132L560.64 810.028C544.224 826.368 532.79 822.206 510.726 822.2L476.336 822.174C465.9 815.508 437.312 783.028 427.062 772.758L174.062 772.754C110.482 772.754 116.539 768.508 116.534 712.54L116.511 360.696C116.483 339.994 109.589 310.448 135.508 305.508Z" fill="#013C58"/>
<path d="M512.48 684.556L511.684 684.826C445.172 646.874 318.584 635.406 240.652 650.236C211.152 655.85 205.284 651.726 205.268 621.234L205.286 249.602C205.298 201.772 201.018 203.014 254.334 196.731C327.934 188.056 456.378 203.144 512.48 247.386L512.488 636.524C512.484 652.504 512.052 668.586 512.48 684.556ZM358.292 254.558C352.694 256.592 349.208 259.396 345.454 264.01V281.45C336.216 281.47 314.404 280.254 306.45 282.06C290.394 285.708 290.12 309.24 305.984 313.03C311.88 314.44 330.172 313.518 337.298 313.446C327.604 340.872 307.448 366.924 284.894 385.108C275.486 392.692 256.29 400.28 263.42 415.882C278.862 449.664 337.198 375.444 345.376 363.92C350.012 357.386 353.308 349.838 358.292 343.594C365.018 353.684 372.364 363.474 378.922 373.624C369.538 378.222 360.996 384.168 351.426 388.488C341.576 392.934 329.286 393.312 323.376 403.29C320.34 412.316 322.986 422.53 333.156 425.35C347.326 429.28 385.23 404.96 399.322 395.15C407.204 402.852 437.32 424.606 448.112 424.444C456.26 424.32 463.528 415.89 462.554 407.774C460.906 394.046 432.602 384.6 421.296 373.624C427.384 366.832 438.822 354.994 438.428 345.41C438.078 336.888 429.466 330.608 421.298 331.24C410.49 332.074 406.854 342.824 400.878 350.064C392.072 339.852 381.806 326.856 378.922 313.446C387.608 313.442 407.856 314.816 415.2 312.162C429.432 307.02 428.268 284.686 412.564 281.766C404.838 280.328 385.666 281.492 376.738 281.45C377.318 267.3 376.036 253.296 358.292 254.558Z" fill="#013C58"/>
<path d="M396.332 464.612C411.428 463.442 424.552 477.864 415.778 492.36C410.794 500.592 395.376 513.106 387.934 521.02L388.49 521.51C397.748 529.686 418.186 547.094 418.596 558.676C419.11 573.112 402.64 582.942 390.528 575.26C383.03 570.504 368.398 554.034 361.19 547.018C352.754 555.296 338.938 574.3 327.592 576.52C311.908 583.052 299.18 563.276 306.792 549.672C311.6 541.078 326.894 529.348 334.212 521.02C324.924 511.054 304.122 497.762 304.144 483.728C304.168 468.752 321.604 459.74 334.138 467.858C340.86 472.212 355.184 489.122 361.19 495.78C370.642 484.308 381.574 469.214 396.332 464.612Z" fill="#F5A201"/>
<path d="M512.48 247.386C551.282 208.804 680.166 194.595 730.49 194.744C744.34 194.785 808.45 196.408 817.352 205.612C823.272 211.73 820.246 285.612 820.244 299.102L820.242 599.148C820.262 618.044 827.842 652.94 800.026 650.532C713.118 643.008 590.59 637.218 512.48 684.556C512.052 668.586 512.484 652.504 512.488 636.524L512.48 247.386ZM598.33 471.69C563.724 472.664 572.698 504.512 589.042 506.448C594.568 507.102 600.39 506.744 605.96 506.744L732.25 506.706C755.364 506.462 764.076 488.268 749.168 475.422C742.764 469.906 729.448 471.678 721.646 471.674L598.33 471.69ZM602.438 541.77C560.116 541.712 573.364 574.4 588.16 576.318C594.218 577.104 600.514 576.622 606.61 576.554L728.834 576.52C770.458 577.242 756.074 544.52 740.136 542.35C727.878 540.678 706.784 541.76 693.662 541.764L602.438 541.77Z" fill="#3084A1"/>
<path d="M640.648 264.01C670.704 262.732 705.444 260.916 728.696 282.028C756.446 307.222 751.822 341.436 751.918 375.126C751.946 384.632 753.032 397.868 751.34 406.826C748.892 419.79 731.666 426.462 722.006 416.9C713.182 408.168 715.834 391.59 715.84 380.138H688.25H611.876C611.838 389.35 613.882 404.508 609.142 412.39C603.228 422.222 591.04 424.052 582.002 417.368C570.748 409.046 574.826 388.482 574.87 376.446C574.93 359.578 573.12 333.724 576.81 318.202C584.034 287.828 609.666 266.912 640.648 264.01Z" fill="#F5A201"/>
<path d="M640.648 299.864C676.046 299.412 718.756 291.986 715.84 343.594H688.25H611.876C610.668 321.128 616.272 305.296 640.648 299.864Z" fill="#013C58"/>
</svg>
