<svg width="1051" height="1291" viewBox="0 0 1051 1291" fill="none" xmlns="http://www.w3.org/2000/svg">
<path d="M0.227015 1174.22L0.199632 132.077C0.200277 119.307 -0.629654 105.79 1.09012 93.1398C10.9596 20.5461 66.6795 0.00225522 129.507 0L938.121 0.0241621C990.784 0.545441 1041.36 38.5205 1048.17 92.2654C1050.42 110.011 1049.69 128.547 1049.7 146.402L1049.65 1117.16C1049.65 1141.15 1052.41 1167.03 1049.66 1190.79C1044.83 1240.85 1007.15 1281.79 957.152 1288.66C929.951 1292.4 892.578 1290.4 864.32 1290.39L116.207 1290.39C45.7961 1290.13 -0.431833 1245.05 0.227015 1174.22ZM90.5365 197.378C89.2897 231.348 90.5365 265.837 90.5397 299.852L90.5365 1141.5H960.29V197.378H90.5365Z" fill="#013C58"/>
<path d="M865.558 82.9404C907.573 88.7199 911.326 130.376 874.07 144.131C836.179 141.007 826.977 94.867 865.558 82.9404Z" fill="#6AA3B0"/>
<path d="M144.517 82.9404C181.712 81.711 219.387 82.9276 256.644 82.9292L649.665 82.9418C671.17 82.9411 739.326 77.2141 755.815 89.6913C779.108 107.32 766.125 141.317 739.072 144.131L164.853 144.133C143.451 144.129 120.415 145.01 116.243 117.298C113.514 99.2023 127.458 85.3964 144.517 82.9404Z" fill="#3084A1"/>
<path d="M275.878 973.817C199.673 973.243 173.6 971.146 173.716 887.203L173.758 707.736C173.742 667.274 163.045 598.998 215.434 586.369C232.87 582.165 320.019 583.128 344.414 584.426L344.311 615.661C344.23 672.026 367.514 685.106 420.998 684.987L643.238 684.919C663.38 726.899 682.788 726.322 704.406 751.02C703.584 789.175 710.063 896.389 702.666 928.184C692.695 971.049 658.857 973.814 623.978 973.83L418.443 973.817C396.851 995.074 349.201 1050.29 326.962 1065.26C310.544 1076.31 283.929 1069.87 278.165 1049.65C273.568 1033.53 275.832 992.226 275.878 973.817Z" fill="#F5A201"/>
<path d="M275.877 850.218H351.659V911.002C343.541 911.714 334.835 911.086 326.659 911.076L275.877 911.002V850.218Z" fill="#C66E05"/>
<path d="M275.877 748.407H508.446V811.292H275.877V748.407Z" fill="#C66E05"/>
<path d="M344.414 584.426L344.436 423.387C344.42 380.168 332.857 309.308 393.629 300.275C410.705 297.736 428.985 299.118 446.231 299.173L720.376 299.215C760.297 299.208 828.952 288.699 857.374 318.684C875.532 337.837 874.066 358.24 874.082 382.693L874.089 555.962C874.076 595.545 882.636 642.109 851.472 670.892C829.371 691.305 803.565 687.964 775.684 687.841L775.838 721.686C776.103 740.562 777.755 774.242 749.684 773.559C733.302 773.16 718.069 758.733 704.406 751.02C682.788 726.322 663.38 726.899 643.238 684.919L420.998 684.987C367.514 685.106 344.23 672.026 344.311 615.661L344.414 584.426Z" fill="#3084A1"/>
<path d="M545.409 538.136H772.236V596.121C771.331 596.621 565.983 596.118 545.409 596.121V538.136Z" fill="#F5A201"/>
<path d="M463.29 431.699H775.684V488.119C741.208 487.22 706.448 488.099 671.943 488.103L463.29 488.119V431.699Z" fill="#F5A201"/>
</svg>
