<svg width="1024" height="1024" viewBox="0 0 1024 1024" fill="none" xmlns="http://www.w3.org/2000/svg">
<path d="M803.228 147.428C848.28 145.184 868.768 171.78 868.87 214.626L868.856 791.308C868.864 799.388 869.274 807.792 868.166 815.804C862.502 856.752 828.07 866.136 793.792 866.046L221.728 866.004C181.889 865.774 155.498 841.878 155.314 801.256L155.277 222.532C155.242 187.472 165.252 153.481 206.798 147.911C214.022 146.943 221.576 147.383 228.86 147.397L803.228 147.428ZM749.096 177.912L236.574 177.896C188.437 177.917 186.837 186.666 186.894 228.468L186.926 670.45C186.925 714.714 186.437 759.036 186.936 803.294C187.305 836.002 205.882 835.096 232.044 835.088L276.366 835.062L789.06 835.08C838.826 835.05 837.982 825.57 837.992 783.604L837.986 256.056C837.988 239.78 842.074 197.327 830.24 185.78C819.516 175.314 805.462 177.855 791.808 177.892L749.096 177.912Z" fill="#013C58"/>
<path d="M749.096 177.912L791.808 177.892C805.462 177.856 819.516 175.314 830.24 185.78C842.074 197.327 837.988 239.78 837.986 256.056L837.992 783.604C837.982 825.57 838.826 835.05 789.06 835.08L276.366 835.062L232.044 835.088C205.882 835.096 187.305 836.002 186.936 803.294C186.437 759.036 186.925 714.714 186.926 670.45L186.894 228.468C186.837 186.666 188.437 177.917 236.574 177.896L749.096 177.912ZM577.976 352.76H563.48V552.486H774.578H788.06V352.76H577.976ZM389.768 749.478L276.118 749.468C268.44 749.436 258.258 747.826 252.15 753.662C246.836 758.736 247.546 767.234 252.76 772.092C259.28 778.17 287.772 775.81 297.892 775.808L634.25 775.806L747.044 775.852C754.702 775.866 765.734 777.422 771.632 771.318C776.528 766.254 774.998 757.572 769.992 753.174C762.078 746.218 730.382 749.464 719.738 749.476L389.768 749.478ZM263.336 609.782C250.452 610.936 242.268 624.368 253.046 632.738C261.22 639.086 309.048 636.004 320.95 636.004L760.856 635.998C781.438 633.476 777.874 611.042 759.568 609.936C741.916 608.868 721.69 609.76 703.754 609.768L263.336 609.782ZM422.352 680.492L277.79 680.47C271.892 680.47 265.614 680.072 259.764 680.732C249.202 681.922 244.264 694.73 252.214 702.464C259.838 709.884 287.274 706.474 297.454 706.472L601.75 706.474L741.618 706.462C749.93 706.472 764.154 708.554 770.798 702.256C777.842 695.578 773.59 681.722 763.852 680.742C752.042 679.552 739.35 680.466 727.422 680.466L422.352 680.492Z" fill="#3084A1"/>
<path d="M706.806 260.806C716.75 258.066 726.672 264.69 730.954 273.4L719.476 277.928C700.368 254.204 686.434 295.076 706.808 299.4C712.906 300.694 716.662 296.1 721.302 293.206L721.936 293.514L730.954 300.462C720.066 311.21 703.152 314.298 690.988 303.49C675.404 289.642 685.018 261.338 706.806 260.806Z" fill="#FEFEFE"/>
<path d="M655.512 260.806C679.458 252.92 674.494 297.726 674.452 309.576H661.92C661.95 300.87 667.186 257.668 646.544 273.4C639.242 279.824 642.574 300.488 642.622 309.576H629.79V260.806C634.07 260.624 638.34 260.722 642.622 260.806V266.46C647.118 261.982 649.056 260.892 655.512 260.806Z" fill="#FEFEFE"/>
<path d="M738.982 241.48C743.156 241.322 747.35 241.44 751.526 241.48V266.46C755.932 263.088 760.268 260.122 766.048 259.96C790.264 259.276 783.666 294.546 783.612 309.576C779.558 309.416 775.476 309.544 771.418 309.576V288.87C771.538 280.446 772.908 270.602 761.76 270.128C746.864 269.496 751.484 301.312 751.526 309.576C747.308 309.332 743.202 309.358 738.982 309.576V241.48Z" fill="#FEFEFE"/>
<path d="M573.348 243.988H619.002V255.204H586.528C586.408 260.322 586.478 265.44 586.528 270.558C596.434 270.52 606.344 270.404 616.248 270.558C616.464 274.162 616.338 277.756 616.248 281.362C606.384 281.072 596.402 281.356 586.528 281.362C585.942 286.728 586.504 292.802 586.528 298.238C597.348 298.37 608.178 298.142 619.002 298.238C619.666 302.114 619.542 305.71 619.002 309.576H573.348V243.988Z" fill="#FEFEFE"/>
<path d="M577.976 352.76H788.06V552.486H774.578H563.48V352.76H577.976ZM613.978 488.416C610.894 490.208 608.454 492.346 607.538 495.938C603.118 513.232 630.41 508.496 639.448 508.496L695.514 508.484C707.408 508.484 727.922 509.836 738.982 508.478C747.54 505.796 749.452 489.32 734.448 488.488C720.386 487.706 705.946 488.426 691.844 488.434L613.978 488.416Z" fill="#F5A201"/>
<path d="M619.002 446.404L694.954 446.386C706.904 446.384 731.928 443.496 742.322 448.928C747.206 456.038 746.802 466.734 736.534 467.058L655.256 467.034C645.968 467.02 609.07 471.784 607.146 459.226C605.874 450.92 612.002 447.612 619.002 446.404Z" fill="#FEFEFE"/>
<path d="M613.978 404.49L690.466 404.486C704.724 404.488 719.268 403.902 733.494 404.586C742.9 405.04 743.872 407.706 746.226 416.742C744.852 420.282 742.638 423.89 738.982 425.404L661.06 425.408C647.102 425.414 632.814 426.074 618.886 425.392C610.448 424.978 608.41 423.03 606.128 414.766C607.34 409.932 608.646 405.84 613.978 404.49Z" fill="#FEFEFE"/>
<path d="M276.366 231.978L464.492 231.96C527.868 231.94 530.13 242.858 530.088 308.066L530.086 465.908C530.08 499.088 536.55 545.49 491.178 552.486C483.542 553.898 475.564 552.5 467.86 552.494L286.562 552.492C280.38 552.492 273.998 552.75 267.848 552.094C230.264 548.078 237.436 499.262 237.45 473.544L237.452 304.386C237.458 273.306 232.636 237.3 276.366 231.978Z" fill="#F5A201"/>
<path d="M281.776 483.916C322.348 481.062 373.028 483.902 414.734 483.904L456.172 483.91C465.18 483.912 474.87 483.42 483.794 484.708C496.128 486.486 492.37 500.574 485.85 506.51C479.722 507.334 471.752 506.5 465.424 506.5L326.762 506.514C314.782 506.514 294.728 507.664 283.798 505.728C273.088 503.83 274.368 489.032 281.776 483.916Z" fill="#FEFEFE"/>
<path d="M417.13 293.514L457.912 293.482C466.298 293.48 489.964 290.12 490.918 302.978C491.944 316.832 469.292 314.044 461.244 314.042L426.51 314V344.674H479.952C483.878 347.544 484.838 350.186 485.85 354.76C483.922 366.254 474.786 364.416 465.504 364.384L442.016 364.27C435.846 364.238 426.614 361.708 426.51 367.876V396.922L462.554 396.892C474.87 396.87 504.228 396.23 485.85 416.742C474.61 417.556 412.844 417.646 409.18 415.336C403.28 411.616 404.908 402.156 404.908 396.348L404.916 329.152C404.924 315.422 400.196 296.358 417.13 293.514Z" fill="#FEFEFE"/>
<path d="M328.978 293.514C344.834 291.032 347.674 306.1 352.488 317.89L377.734 379.29C382.332 390.422 400.31 424.584 371.746 416.742C366.976 407.86 362.634 397.782 359.704 388.128H338.238H307.462C305.308 392.742 291.032 436.67 279.076 411.894C276.048 405.624 283.658 392.832 286.012 386.996L313.108 319.158C316.86 310.018 319.508 298.274 328.978 293.514Z" fill="#FEFEFE"/>
<path d="M332.726 323.864C334.948 325.99 348.806 362.7 351.956 369.482H335.25H315.182C321.082 354.26 327.436 339.324 332.726 323.864Z" fill="#F5A201"/>
</svg>
